<svg xmlns="http://www.w3.org/2000/svg" width="163.839" height="163.839" fill-rule="evenodd" clip-rule="evenodd" image-rendering="optimizeQuality" shape-rendering="geometricPrecision" text-rendering="geometricPrecision" viewBox="0 0 1707 1707"><path fill-rule="nonzero" d="M0 1128l0 -6 0 0c0,-5 2,-11 7,-15 23,-20 65,-98 107,-182 42,-86 83,-176 102,-220 18,-41 35,-77 52,-112 16,-35 32,-69 46,-102l6 -13c31,-69 62,-139 101,-201 2,-4 5,-8 10,-9 10,-4 22,1 26,11l228 579 0 0c19,47 38,94 58,141 20,48 41,94 62,140 10,21 17,39 25,57 12,28 24,55 37,82 7,15 19,36 30,57 18,32 36,64 42,82l0 0c1,2 1,5 1,8 -2,11 -12,19 -23,18 -36,-5 -105,-30 -161,-50 -22,-8 -41,-15 -57,-20 -23,-8 -43,-14 -59,-19 -83,-25 -88,-26 -122,-108 -39,-92 -63,-193 -83,-282 -9,-36 -17,-71 -25,-102l-50 151 0 0 0 1c-3,7 -7,19 -11,30 -22,60 -43,120 -74,165 -4,8 -14,12 -23,9l-237 -71c-8,-2 -15,-10 -15,-19zm1398 -66l-408 116 68 243c85,-17 173,-39 260,-65 50,-15 100,-32 148,-50l-68 -244zm-438 83l0 0zm244 -479c-118,62 -469,70 -470,70 -11,0 -20,-10 -20,-21 0,-11 10,-19 21,-19 1,0 342,-8 450,-66 10,-5 22,-1 27,9 5,9 2,21 -8,27zm-217 768c10,-2 21,-4 32,-6l-73 -258c-3,-11 4,-22 14,-25l446 -127c11,-3 22,3 25,14l0 1 72 259c70,-27 135,-55 193,-85 10,-5 13,-17 8,-27l-1 -2 -260 -404c-101,-156 -155,-352 -181,-444 -10,-36 -16,-58 -26,-63 -6,-4 -13,-4 -18,-1 -100,45 -238,55 -378,49 -118,-5 -239,-22 -341,-39l223 567c19,47 38,94 58,141 20,46 40,92 61,138 9,19 17,39 26,58 11,27 23,54 36,81 9,18 19,36 29,54 15,26 36,61 45,89l10 30zm269 -891c-118,62 -470,70 -471,70 -11,0 -19,-9 -19,-20 0,-11 9,-20 20,-20 1,0 343,-8 451,-65 10,-6 22,-2 27,8 5,10 1,22 -8,27zm-75 -102c-118,63 -470,71 -471,71 -11,-1 -19,-10 -19,-21 0,-11 9,-19 20,-19 1,0 343,-9 451,-66 10,-5 22,-1 27,8 5,10 1,22 -8,27z"/></svg>