<svg xmlns="http://www.w3.org/2000/svg" enable-background="new 0 0 50 50" viewBox="0 0 50 50"><path d="M11.68647 42.59449l10.33984 3.69006-6.88989 2.46997c-.44995.15991-.92017.23999-1.38989.23999-.48022 0-.9502-.08008-1.39014-.23999-1.5-.53003-2.46997-1.84009-2.46997-3.33008 0-1.18994.61011-2.26001 1.61987-2.8999C11.56635 42.55445 11.62641 42.57447 11.68647 42.59449zM40.1164 37.38441c0 1.19006-.61011 2.25-1.61987 2.89014-.06006-.03003-.12012-.05005-.18018-.07007l-10.33984-3.68994 6.88989-2.47009c.88989-.31995 1.88989-.31995 2.78003 0C39.14643 34.57447 40.1164 35.88441 40.1164 37.38441zM40.07636 45.84449c-.31006 1.79993-1.94995 3.16003-3.80005 3.16003-.46997 0-.93994-.08008-1.40991-.25l-22.51001-8.04004c-1.76001-.63-2.71997-2.10999-2.42993-3.76001.30981-1.80005 1.93994-3.16003 3.78979-3.16003.47021 0 .9502.07996 1.42017.25l22.51001 8.04004C39.40644 42.71449 40.35639 44.19447 40.07636 45.84449zM35.97651 24.67445v.21997c-.04004 4.21997-2.11011 7.65002-5.67017 9.42004-.28003.15002-.61987.14001-.8999 0s-.47998-.41003-.53003-.71997c-.55005-3.2301-2.1001-6.2301-3.87012-7.59998-1.77979 1.36987-3.32983 4.36987-3.86987 7.59998-.06006.30994-.25.57996-.54004.71997-.13989.06995-.29004.10999-.44995.10999-.1499 0-.31006-.04004-.44995-.10999-3.56006-1.77002-5.63013-5.20007-5.67017-9.41003v-.22998c0-8.58997 5.88013-19.81995 12.32007-23.55005.33008-.17993.71997-.16992 1.03003.02002.32007.20007.5.55005.46997.92004-.53003 7.72998 2.21997 11.38 4.63989 14.59998C34.27631 19.04444 35.97651 21.29444 35.97651 24.67445z"/></svg>